<?xml version="1.0" standalone="no"?>
<!DOCTYPE svg PUBLIC "-//W3C//DTD SVG 20010904//EN"
 "http://www.w3.org/TR/2001/REC-SVG-20010904/DTD/svg10.dtd">
<svg version="1.0" xmlns="http://www.w3.org/2000/svg"
 width="512.000000pt" height="512.000000pt" viewBox="0 0 512.000000 512.000000"
 preserveAspectRatio="xMidYMid meet">
<metadata>
Created by potrace 1.14, written by Peter Selinger 2001-2017
</metadata>
<g transform="translate(0.000000,512.000000) scale(0.100000,-0.100000)"
fill="#000000" stroke="none">
<path d="M2597 5089 c-9 -5 -50 -18 -92 -29 -41 -11 -117 -41 -168 -68 -51
-27 -106 -52 -122 -56 -17 -4 -44 -19 -60 -34 -49 -46 -110 -76 -130 -65 -12
7 -39 3 -94 -15 -120 -39 -124 -41 -161 -75 -19 -18 -52 -45 -72 -61 -21 -15
-40 -38 -44 -49 -3 -12 -19 -43 -35 -69 -24 -40 -29 -61 -33 -140 -8 -142 -30
-250 -60 -294 -14 -21 -26 -48 -26 -60 0 -11 -13 -47 -29 -80 -45 -94 -57
-124 -82 -204 -29 -95 -50 -138 -104 -208 -44 -58 -48 -69 -86 -204 -12 -42
-30 -86 -40 -97 -10 -11 -24 -41 -30 -68 -7 -26 -20 -64 -29 -83 -10 -19 -16
-44 -14 -55 6 -27 5 -113 0 -150 -3 -16 -8 -57 -11 -90 -4 -33 -9 -63 -11 -67
-2 -3 2 -26 10 -50 21 -64 29 -141 18 -180 -6 -24 -5 -54 4 -99 8 -35 14 -92
14 -125 0 -35 7 -78 17 -100 9 -22 18 -48 20 -59 13 -75 35 -171 43 -186 9
-16 45 -156 56 -218 11 -55 91 -193 183 -313 35 -46 72 -103 83 -128 26 -58
87 -141 152 -206 63 -63 170 -181 228 -252 24 -28 77 -77 118 -108 41 -30 104
-85 140 -122 37 -38 91 -81 125 -99 110 -58 348 -144 440 -159 32 -6 107 -41
115 -55 3 -5 15 -10 25 -12 45 -9 81 -20 95 -31 8 -7 27 -18 41 -25 15 -7 40
-31 55 -52 16 -21 43 -43 59 -49 17 -6 60 -35 96 -64 l65 -55 65 4 c116 6 121
9 151 81 16 38 24 73 21 87 -17 64 -10 116 33 254 17 53 38 96 60 122 35 40
57 91 75 171 6 25 32 82 60 127 27 45 49 91 49 102 0 12 18 69 40 127 23 59
47 134 55 168 17 73 47 161 69 204 9 18 19 51 22 75 3 23 10 60 16 82 6 22 12
58 14 80 2 22 6 54 8 70 3 17 8 53 11 80 4 28 15 73 25 102 14 41 16 61 8 96
-7 34 -6 58 5 94 22 74 16 400 -8 468 -10 28 -19 82 -20 120 -2 92 -50 259
-104 365 -5 8 -16 47 -25 85 -20 81 -29 103 -73 167 -18 27 -38 68 -45 93 -7
25 -24 58 -38 73 -15 15 -45 61 -68 102 -23 42 -57 89 -78 105 -20 16 -61 64
-91 107 -30 43 -58 78 -63 78 -5 0 -46 36 -92 79 -89 85 -206 176 -247 194
-14 6 -44 28 -66 48 -22 21 -59 45 -83 53 -43 15 -92 48 -147 98 -16 16 -36
28 -43 28 -7 0 -11 4 -8 8 3 5 26 10 52 10 25 1 49 4 53 7 4 2 30 7 57 11 27
3 52 8 56 11 5 2 16 6 25 8 49 9 149 38 158 45 6 4 24 10 40 14 71 17 283 118
328 157 91 77 87 72 76 112 -17 64 -60 102 -153 135 -46 17 -101 33 -122 37
-42 7 -124 35 -189 65 -42 19 -96 35 -154 45 -19 3 -39 9 -45 13 -17 10 -320
11 -339 1z"/>
</g>
</svg>
